<?xml version="1.0" encoding="UTF-8" standalone="no"?>
<!DOCTYPE svg PUBLIC "-//W3C//DTD SVG 1.1//EN"
 "http://www.w3.org/Graphics/SVG/1.1/DTD/svg11.dtd">
<!-- Generated by graphviz version 11.0.0 (20240428.1522)
 -->
<!-- Title: model Pages: 1 -->
<svg width="139pt" height="343pt"
 viewBox="0.00 0.00 139.00 343.00" xmlns="http://www.w3.org/2000/svg" xmlns:xlink="http://www.w3.org/1999/xlink">
<g id="graph0" class="graph" transform="scale(1 1) rotate(0) translate(4 339)">
<title>model</title>
<polygon fill="white" stroke="none" points="-4,4 -4,-339 135,-339 135,4 -4,4"/>
<!-- 0 -->
<g id="node1" class="node">
<title>0</title>
<polygon fill="lightyellow" stroke="none" points="114.88,-335 16.12,-335 16.12,-302.5 114.88,-302.5 114.88,-335"/>
<polygon fill="none" stroke="black" points="16.12,-302.5 16.12,-335 77.12,-335 77.12,-302.5 16.12,-302.5"/>
<text text-anchor="start" x="21.12" y="-320.5" font-family="Linux libertine" font-size="10.00">input&#45;tensor</text>
<text text-anchor="start" x="30.5" y="-309.25" font-family="Linux libertine" font-size="10.00">depth:0</text>
<polygon fill="none" stroke="black" points="77.12,-302.5 77.12,-335 114.88,-335 114.88,-302.5 77.12,-302.5"/>
<text text-anchor="start" x="82.12" y="-314.88" font-family="Linux libertine" font-size="10.00">(32, 1)</text>
</g>
<!-- 1 -->
<g id="node2" class="node">
<title>1</title>
<polygon fill="#c1ffc1" stroke="none" points="131,-266.5 0,-266.5 0,-224.5 131,-224.5 131,-266.5"/>
<polygon fill="none" stroke="black" points="0,-224.5 0,-266.5 42,-266.5 42,-224.5 0,-224.5"/>
<text text-anchor="start" x="7.88" y="-247.25" font-family="Linux libertine" font-size="10.00">Linear</text>
<text text-anchor="start" x="4.88" y="-236" font-family="Linux libertine" font-size="10.00">depth:1</text>
<polygon fill="none" stroke="black" points="42,-245.5 42,-266.5 85,-266.5 85,-245.5 42,-245.5"/>
<text text-anchor="start" x="51.5" y="-252" font-family="Linux libertine" font-size="10.00">input:</text>
<polygon fill="none" stroke="black" points="85,-245.5 85,-266.5 131,-266.5 131,-245.5 85,-245.5"/>
<text text-anchor="start" x="92.62" y="-252" font-family="Linux libertine" font-size="10.00">(32, 1) </text>
<polygon fill="none" stroke="black" points="42,-224.5 42,-245.5 85,-245.5 85,-224.5 42,-224.5"/>
<text text-anchor="start" x="47" y="-231" font-family="Linux libertine" font-size="10.00">output: </text>
<polygon fill="none" stroke="black" points="85,-224.5 85,-245.5 131,-245.5 131,-224.5 85,-224.5"/>
<text text-anchor="start" x="90" y="-231" font-family="Linux libertine" font-size="10.00">(32, 64) </text>
</g>
<!-- 0&#45;&gt;1 -->
<g id="edge1" class="edge">
<title>0&#45;&gt;1</title>
<path fill="none" stroke="black" d="M65.5,-302.64C65.5,-295.39 65.5,-286.43 65.5,-277.81"/>
<polygon fill="black" stroke="black" points="69,-277.97 65.5,-267.97 62,-277.97 69,-277.97"/>
</g>
<!-- 2 -->
<g id="node3" class="node">
<title>2</title>
<polygon fill="#c1ffc1" stroke="none" points="131,-188.5 0,-188.5 0,-146.5 131,-146.5 131,-188.5"/>
<polygon fill="none" stroke="black" points="0,-146.5 0,-188.5 42,-188.5 42,-146.5 0,-146.5"/>
<text text-anchor="start" x="8.25" y="-169.25" font-family="Linux libertine" font-size="10.00">ReLU</text>
<text text-anchor="start" x="4.88" y="-158" font-family="Linux libertine" font-size="10.00">depth:1</text>
<polygon fill="none" stroke="black" points="42,-167.5 42,-188.5 85,-188.5 85,-167.5 42,-167.5"/>
<text text-anchor="start" x="51.5" y="-174" font-family="Linux libertine" font-size="10.00">input:</text>
<polygon fill="none" stroke="black" points="85,-167.5 85,-188.5 131,-188.5 131,-167.5 85,-167.5"/>
<text text-anchor="start" x="90" y="-174" font-family="Linux libertine" font-size="10.00">(32, 64) </text>
<polygon fill="none" stroke="black" points="42,-146.5 42,-167.5 85,-167.5 85,-146.5 42,-146.5"/>
<text text-anchor="start" x="47" y="-153" font-family="Linux libertine" font-size="10.00">output: </text>
<polygon fill="none" stroke="black" points="85,-146.5 85,-167.5 131,-167.5 131,-146.5 85,-146.5"/>
<text text-anchor="start" x="90" y="-153" font-family="Linux libertine" font-size="10.00">(32, 64) </text>
</g>
<!-- 1&#45;&gt;2 -->
<g id="edge2" class="edge">
<title>1&#45;&gt;2</title>
<path fill="none" stroke="black" d="M65.5,-224.53C65.5,-216.94 65.5,-208.1 65.5,-199.71"/>
<polygon fill="black" stroke="black" points="69,-199.85 65.5,-189.85 62,-199.85 69,-199.85"/>
</g>
<!-- 3 -->
<g id="node4" class="node">
<title>3</title>
<polygon fill="#c1ffc1" stroke="none" points="131,-110.5 0,-110.5 0,-68.5 131,-68.5 131,-110.5"/>
<polygon fill="none" stroke="black" points="0,-68.5 0,-110.5 42,-110.5 42,-68.5 0,-68.5"/>
<text text-anchor="start" x="7.88" y="-91.25" font-family="Linux libertine" font-size="10.00">Linear</text>
<text text-anchor="start" x="4.88" y="-80" font-family="Linux libertine" font-size="10.00">depth:1</text>
<polygon fill="none" stroke="black" points="42,-89.5 42,-110.5 85,-110.5 85,-89.5 42,-89.5"/>
<text text-anchor="start" x="51.5" y="-96" font-family="Linux libertine" font-size="10.00">input:</text>
<polygon fill="none" stroke="black" points="85,-89.5 85,-110.5 131,-110.5 131,-89.5 85,-89.5"/>
<text text-anchor="start" x="90" y="-96" font-family="Linux libertine" font-size="10.00">(32, 64) </text>
<polygon fill="none" stroke="black" points="42,-68.5 42,-89.5 85,-89.5 85,-68.5 42,-68.5"/>
<text text-anchor="start" x="47" y="-75" font-family="Linux libertine" font-size="10.00">output: </text>
<polygon fill="none" stroke="black" points="85,-68.5 85,-89.5 131,-89.5 131,-68.5 85,-68.5"/>
<text text-anchor="start" x="92.62" y="-75" font-family="Linux libertine" font-size="10.00">(32, 1) </text>
</g>
<!-- 2&#45;&gt;3 -->
<g id="edge3" class="edge">
<title>2&#45;&gt;3</title>
<path fill="none" stroke="black" d="M65.5,-146.53C65.5,-138.94 65.5,-130.1 65.5,-121.71"/>
<polygon fill="black" stroke="black" points="69,-121.85 65.5,-111.85 62,-121.85 69,-121.85"/>
</g>
<!-- 4 -->
<g id="node5" class="node">
<title>4</title>
<polygon fill="lightyellow" stroke="none" points="117.88,-32.5 13.12,-32.5 13.12,0 117.88,0 117.88,-32.5"/>
<polygon fill="none" stroke="black" points="13.12,0 13.12,-32.5 80.12,-32.5 80.12,0 13.12,0"/>
<text text-anchor="start" x="18.12" y="-18" font-family="Linux libertine" font-size="10.00">output&#45;tensor</text>
<text text-anchor="start" x="30.5" y="-6.75" font-family="Linux libertine" font-size="10.00">depth:0</text>
<polygon fill="none" stroke="black" points="80.12,0 80.12,-32.5 117.88,-32.5 117.88,0 80.12,0"/>
<text text-anchor="start" x="85.12" y="-12.38" font-family="Linux libertine" font-size="10.00">(32, 1)</text>
</g>
<!-- 3&#45;&gt;4 -->
<g id="edge4" class="edge">
<title>3&#45;&gt;4</title>
<path fill="none" stroke="black" d="M65.5,-68.65C65.5,-60.91 65.5,-51.91 65.5,-43.63"/>
<polygon fill="black" stroke="black" points="69,-43.76 65.5,-33.76 62,-43.76 69,-43.76"/>
</g>
</g>
</svg>
